<?xml version="1.0" standalone="no"?>
<!DOCTYPE svg PUBLIC "-//W3C//DTD SVG 20010904//EN"
 "http://www.w3.org/TR/2001/REC-SVG-20010904/DTD/svg10.dtd">
<svg version="1.0" xmlns="http://www.w3.org/2000/svg"
 width="378.000000pt" height="378.000000pt" viewBox="0 0 378.000000 378.000000"
 preserveAspectRatio="xMidYMid meet">
<metadata>
Created by potrace 1.14, written by Peter Selinger 2001-2017
</metadata>
<g transform="translate(0.000000,378.000000) scale(0.100000,-0.100000)"
fill="#000000" stroke="none">
<path d="M1777 3738 c2 -5 -30 -8 -71 -8 -42 0 -76 -4 -76 -9 0 -4 -15 -9 -32
-9 -58 -1 -147 -20 -165 -34 -7 -5 -17 -7 -22 -4 -6 4 -18 3 -28 -3 -10 -5
-49 -19 -88 -31 -98 -32 -245 -97 -257 -114 -4 -6 -8 -8 -8 -4 0 9 -103 -52
-108 -64 -2 -5 -8 -6 -13 -2 -5 3 -9 0 -9 -5 0 -6 -3 -10 -7 -9 -8 3 -83 -50
-95 -67 -4 -5 -8 -7 -8 -3 0 4 -16 -7 -36 -25 -20 -18 -64 -56 -98 -86 -34
-30 -72 -66 -85 -80 -56 -60 -107 -119 -126 -146 -11 -16 -28 -37 -38 -47 -9
-10 -15 -18 -12 -18 3 0 -3 -10 -15 -22 -11 -12 -20 -28 -20 -35 0 -7 -5 -13
-11 -13 -5 0 -7 -4 -4 -10 3 -5 2 -10 -3 -10 -5 0 -15 -12 -22 -27 -8 -16 -23
-40 -33 -55 -10 -16 -15 -28 -10 -28 4 0 3 -4 -2 -8 -10 -6 -85 -154 -85 -166
0 -2 -5 -17 -12 -33 -6 -15 -12 -31 -13 -35 -2 -5 -4 -10 -5 -13 -1 -3 -3 -8
-5 -12 -1 -5 -7 -21 -13 -36 -7 -16 -12 -36 -12 -46 0 -10 -3 -21 -7 -25 -4
-4 -8 -17 -10 -29 -6 -51 -16 -87 -22 -83 -4 3 -6 -15 -6 -40 1 -24 -1 -44 -4
-44 -17 0 -23 -452 -8 -545 5 -27 10 -63 12 -80 6 -45 15 -86 24 -104 4 -9 7
-23 6 -31 -1 -8 2 -20 6 -25 4 -6 10 -22 13 -35 5 -29 44 -133 77 -205 12 -27
23 -52 24 -55 6 -17 39 -81 60 -115 14 -22 27 -48 31 -57 3 -10 9 -18 13 -18
4 0 15 -17 26 -37 11 -21 26 -44 33 -53 7 -8 36 -44 64 -80 29 -35 59 -72 68
-80 8 -9 24 -28 35 -41 11 -14 36 -37 55 -53 19 -15 55 -47 80 -70 25 -23 61
-53 80 -66 19 -14 44 -32 54 -42 11 -10 26 -18 33 -18 7 0 13 -4 13 -8 0 -5
17 -17 38 -28 56 -31 86 -48 92 -54 9 -9 65 -34 73 -32 4 1 7 -2 7 -7 0 -7 35
-22 43 -18 1 1 16 -7 32 -16 33 -19 180 -73 223 -83 15 -3 39 -8 55 -11 15 -3
27 -8 27 -12 0 -7 9 -8 85 -15 22 -2 47 -6 55 -9 47 -18 467 -30 477 -14 2 4
24 7 49 7 24 0 44 4 44 8 0 5 17 7 37 5 20 -1 42 2 49 8 6 5 16 9 20 8 9 -2
58 9 84 18 8 4 20 7 25 8 6 1 12 3 15 4 3 2 12 4 20 6 8 2 29 9 45 16 17 7 36
11 43 10 6 -1 12 2 12 7 0 4 23 14 50 21 28 7 50 17 50 21 0 5 14 11 30 15 17
4 30 11 30 16 0 5 3 8 8 7 11 -4 122 54 122 64 0 5 4 7 9 4 5 -3 14 1 21 9 7
8 17 15 22 15 5 0 14 4 21 10 24 20 139 105 155 115 9 6 33 26 53 45 20 19 51
49 70 66 56 50 131 135 181 204 26 36 52 70 58 77 5 7 10 15 10 17 0 3 15 29
34 58 28 44 107 191 111 208 1 3 9 21 17 40 9 19 24 59 34 88 10 28 22 52 26
52 4 0 5 9 3 20 -2 11 0 20 6 20 5 0 8 3 7 8 -1 4 3 25 7 47 13 56 12 55 15
58 3 4 10 40 16 87 4 25 7 50 8 55 1 6 4 15 7 20 3 6 5 25 4 43 -1 17 3 32 8
32 5 0 4 7 -3 15 -7 8 -8 15 -4 15 5 0 9 65 9 145 1 80 -3 145 -8 145 -5 0 -4
6 2 14 8 9 9 16 2 21 -6 3 -9 19 -7 35 2 16 1 32 -2 35 -6 6 -6 6 -16 80 -7
54 -10 72 -18 95 -3 8 -15 49 -26 90 -12 42 -26 89 -33 105 -7 17 -13 33 -13
37 -1 3 -4 10 -8 14 -5 4 -8 16 -8 26 0 10 -5 18 -11 18 -5 0 -7 5 -3 11 3 6
2 14 -2 18 -5 3 -32 50 -58 104 -27 53 -53 97 -58 97 -4 0 -7 3 -6 8 4 11 -61
112 -72 112 -5 0 -10 6 -10 13 0 13 -36 60 -82 108 -15 16 -25 29 -23 29 9 0
-170 174 -205 200 -18 14 -39 30 -45 37 -7 7 -15 9 -19 6 -3 -4 -6 -1 -6 5 0
5 -15 19 -32 31 -18 11 -43 29 -55 41 -13 11 -23 18 -23 15 0 -4 -13 3 -29 14
-16 12 -36 21 -45 21 -9 0 -16 4 -16 10 0 8 -105 64 -122 65 -4 0 -16 8 -27
17 -11 9 -22 14 -24 11 -3 -2 -13 1 -24 6 -32 20 -167 67 -218 76 -11 3 -38 9
-60 15 -22 7 -50 11 -62 11 -13 0 -23 3 -23 8 0 4 -12 7 -27 6 -16 -1 -39 2
-53 6 -57 17 -383 32 -373 17z m273 -109 c0 -4 10 -6 23 -5 12 1 36 -2 52 -6
17 -5 47 -9 68 -10 20 0 37 -3 37 -7 0 -4 12 -8 26 -9 15 -1 45 -7 68 -14 23
-6 46 -12 51 -13 40 -7 74 -19 70 -25 -3 -5 4 -6 15 -3 12 3 20 0 20 -6 0 -7
4 -10 10 -6 5 3 17 2 27 -4 28 -14 78 -33 82 -31 2 1 7 -2 10 -7 3 -4 29 -19
56 -32 67 -32 189 -104 193 -113 2 -5 10 -8 17 -8 8 0 20 -8 27 -17 7 -10 28
-27 47 -37 19 -10 53 -38 77 -62 24 -24 45 -44 48 -44 5 0 29 -24 111 -112 47
-51 105 -124 105 -133 0 -3 10 -17 23 -30 12 -14 31 -42 42 -62 20 -38 29 -52
52 -77 7 -8 9 -16 6 -20 -4 -3 -1 -6 5 -6 7 0 11 -3 10 -7 0 -5 7 -26 17 -48
9 -22 17 -42 17 -45 0 -3 6 -12 14 -21 8 -9 16 -25 18 -35 3 -11 10 -32 17
-49 6 -16 13 -34 14 -40 2 -5 10 -32 20 -60 17 -50 24 -77 30 -105 1 -8 5 -22
8 -30 8 -22 18 -71 21 -110 2 -19 5 -35 6 -35 1 0 4 -34 6 -75 2 -41 3 -75 4
-75 1 0 3 -27 6 -59 3 -42 1 -62 -8 -68 -10 -6 -10 -8 -1 -8 9 0 10 -7 3 -25
-6 -15 -6 -26 1 -30 5 -4 6 -11 3 -17 -6 -10 -11 -55 -16 -160 -2 -27 -6 -48
-10 -48 -5 0 -8 -11 -8 -24 0 -14 -4 -27 -9 -30 -5 -3 -7 -15 -4 -26 3 -11 0
-20 -6 -20 -6 0 -10 -3 -9 -7 3 -11 -13 -86 -20 -98 -4 -5 -7 -13 -8 -17 -1
-5 -3 -10 -4 -13 -1 -3 -3 -8 -4 -12 -4 -23 -52 -133 -58 -133 -4 0 -5 -7 -2
-15 4 -8 2 -15 -3 -15 -5 0 -15 -17 -22 -37 -8 -21 -29 -62 -47 -91 -19 -29
-34 -56 -34 -61 0 -5 -7 -12 -16 -15 -9 -4 -14 -9 -11 -13 4 -3 -12 -28 -34
-54 -23 -27 -38 -49 -35 -49 17 0 -192 -213 -269 -275 -27 -22 -52 -42 -55
-45 -5 -5 -29 -21 -73 -48 -16 -9 -38 -25 -49 -34 -11 -10 -33 -23 -49 -30
-16 -7 -29 -16 -29 -20 0 -5 -7 -8 -15 -8 -8 0 -15 -4 -15 -10 0 -5 -3 -9 -7
-8 -5 1 -26 -7 -48 -17 -22 -10 -43 -17 -47 -17 -5 1 -8 -3 -8 -9 0 -5 -4 -8
-9 -4 -5 3 -16 -1 -24 -9 -8 -8 -17 -12 -21 -9 -3 3 -12 0 -21 -7 -8 -7 -15
-9 -15 -4 0 4 -5 3 -12 -4 -7 -7 -20 -12 -30 -12 -10 0 -18 -4 -18 -9 0 -5 -8
-8 -17 -6 -10 1 -23 -2 -30 -7 -7 -5 -17 -7 -23 -3 -5 3 -10 2 -10 -3 0 -9
-13 -13 -85 -26 -11 -2 -20 -5 -20 -6 0 -1 -9 -4 -21 -5 -11 -1 -38 -6 -60
-10 -21 -4 -55 -9 -74 -12 -58 -7 -404 -10 -415 -3 -5 4 -23 7 -40 8 -16 1
-55 7 -85 13 -30 5 -65 11 -77 11 -13 1 -23 6 -23 10 0 4 -13 8 -29 8 -17 0
-33 5 -36 10 -4 6 -10 8 -15 5 -4 -3 -21 2 -36 10 -16 8 -34 15 -41 15 -6 0
-24 5 -40 11 -15 6 -29 10 -30 10 -1 0 -35 17 -75 37 -40 19 -75 36 -78 37
-21 6 -60 30 -60 37 0 5 -5 6 -10 3 -6 -3 -10 -1 -10 4 0 6 -5 11 -10 11 -15
0 -150 92 -150 102 0 5 -5 6 -10 3 -6 -3 -10 -1 -10 4 0 6 -5 11 -10 11 -6 0
-24 12 -42 28 -38 33 -207 202 -202 202 1 0 -13 17 -31 37 -19 21 -35 44 -35
51 0 7 -4 11 -9 8 -5 -3 -14 8 -21 24 -7 17 -16 30 -20 30 -4 0 -13 14 -20 30
-7 17 -17 30 -22 30 -5 0 -7 4 -4 9 4 5 3 11 -1 13 -8 3 -73 105 -73 114 0 3
-12 31 -26 62 -40 88 -83 209 -77 216 4 3 1 6 -5 6 -7 0 -11 3 -10 8 2 12 -14
86 -22 97 -4 6 -6 20 -5 33 1 12 -1 22 -5 22 -3 0 -7 19 -9 42 -1 23 -5 45 -9
48 -4 3 -7 19 -6 35 0 17 -3 35 -7 40 -4 6 -4 17 1 25 5 8 4 22 -2 33 -8 15
-7 18 3 12 9 -6 10 -4 3 6 -11 17 -13 189 -2 195 4 3 3 14 -2 25 -6 10 -7 19
-2 19 4 0 7 19 7 43 -1 23 2 47 6 52 3 6 9 33 13 60 11 82 12 89 24 118 7 16
12 39 12 53 0 13 4 24 9 24 5 0 8 8 7 17 -2 9 3 28 11 42 7 15 13 34 13 44 0
9 4 17 9 17 5 0 11 12 14 28 9 46 83 192 142 281 30 47 55 87 55 89 0 3 8 12
18 21 10 9 23 23 28 32 8 15 90 110 139 163 11 11 47 44 80 71 33 28 62 53 65
56 3 3 34 26 70 50 36 24 68 48 72 54 4 5 8 6 8 2 0 -5 7 -1 16 7 8 9 21 16
29 16 7 0 15 4 17 9 5 13 230 121 240 115 4 -3 8 -1 8 4 0 5 6 9 13 9 6 1 36
10 65 21 29 11 54 20 55 20 10 0 84 16 92 20 6 4 21 7 35 8 14 1 27 3 30 4 3
2 10 4 15 5 6 0 33 5 60 10 28 4 62 8 78 8 15 0 27 2 27 6 0 3 70 6 155 6 85
0 155 -3 155 -6z"/>
<path d="M1840 3523 c0 -8 -24 -11 -73 -10 -40 0 -79 -3 -86 -7 -7 -5 -32 -10
-54 -12 -23 -1 -53 -5 -67 -8 -14 -4 -40 -9 -57 -12 -18 -4 -33 -11 -33 -16 0
-5 -5 -6 -11 -3 -6 4 -32 0 -57 -10 -52 -18 -63 -22 -75 -23 -4 -1 -20 -8 -35
-16 -29 -16 -118 -56 -125 -56 -6 0 -160 -92 -174 -105 -34 -29 -43 -35 -47
-35 -21 0 -167 -130 -160 -142 11 -17 114 10 114 30 0 4 24 23 52 42 29 19 57
38 63 43 74 56 105 77 105 70 0 -4 5 -2 12 5 7 7 20 12 30 12 10 0 21 7 24 15
4 8 10 13 14 10 5 -3 11 -1 15 4 4 7 15 7 30 1 17 -6 25 -6 25 1 0 10 97 11
115 0 6 -3 15 -6 20 -8 58 -13 70 -12 128 13 34 14 68 26 75 26 6 1 12 4 12 7
0 11 49 11 55 1 4 -6 10 -8 15 -5 4 3 13 -2 20 -10 16 -20 76 -20 83 0 4 8 1
18 -5 21 -8 5 0 17 21 35 27 22 37 25 51 17 10 -7 28 -8 46 -3 37 11 334 13
341 3 2 -5 14 -8 27 -8 12 0 27 -5 34 -12 7 -7 12 -8 12 -3 0 6 5 3 10 -5 5
-8 10 -10 10 -3 0 14 37 5 70 -17 14 -10 29 -18 33 -18 18 0 73 -27 80 -39 5
-7 12 -11 16 -8 13 7 38 -25 57 -75 10 -25 22 -48 28 -52 6 -4 7 -8 3 -8 -4 0
6 -25 23 -56 28 -49 30 -59 20 -88 -12 -37 -37 -49 -65 -33 -10 5 -35 11 -54
11 -47 2 -82 21 -106 56 -11 16 -22 28 -25 26 -3 -1 -17 11 -32 26 -15 15 -24
28 -21 28 3 0 0 7 -7 15 -10 13 -18 11 -54 -14 -54 -38 -156 -140 -156 -156 0
-16 51 -75 65 -75 6 0 18 -17 27 -38 9 -21 40 -62 69 -91 49 -49 54 -52 66
-35 7 10 13 14 14 8 2 -27 22 49 24 92 1 28 7 60 13 71 6 11 8 23 5 27 -12 12
60 4 115 -12 28 -8 52 -19 52 -24 0 -5 4 -7 8 -4 5 3 32 -18 60 -47 46 -47 52
-57 56 -107 3 -30 10 -56 16 -58 5 -2 10 -8 10 -14 0 -6 23 -33 51 -60 27 -28
48 -53 45 -55 -3 -3 1 -18 9 -34 19 -35 19 -88 2 -95 -18 -7 -128 66 -120 79
3 6 1 7 -6 3 -8 -6 -9 -12 -2 -20 23 -27 -52 -59 -146 -62 -82 -2 -99 -14
-142 -96 -14 -26 -35 -52 -47 -59 -17 -8 -21 -17 -15 -31 4 -11 5 -34 3 -50
-3 -23 -12 -33 -36 -41 -17 -6 -33 -9 -35 -8 -2 1 -7 -1 -10 -6 -10 -14 -71
-45 -71 -36 0 4 -5 0 -10 -9 -7 -10 -7 -25 -1 -40 30 -75 36 -105 22 -122 -6
-7 -8 -16 -4 -19 3 -4 2 -8 -3 -8 -53 -7 -64 -6 -69 2 -4 5 -11 7 -16 3 -5 -3
-16 11 -24 30 -28 67 -49 83 -108 81 -29 -1 -61 -5 -72 -10 -65 -23 -75 -28
-75 -35 0 -5 -20 -30 -44 -56 -25 -26 -43 -51 -40 -56 3 -4 0 -8 -5 -8 -14 0
-14 -107 -1 -115 6 -4 8 -10 5 -14 -8 -14 28 -46 53 -47 12 -1 22 3 22 7 0 5
6 9 13 9 7 0 27 13 45 30 18 16 36 30 40 31 4 0 16 2 26 4 29 5 79 -33 70 -54
-11 -26 -16 -91 -7 -92 32 -3 49 -10 63 -27 16 -20 81 -68 90 -66 3 1 15 -6
28 -14 37 -24 90 -24 107 2 9 11 16 19 18 18 3 -6 57 20 57 27 0 13 222 -1
260 -16 8 -4 19 -5 23 -4 9 1 23 -10 73 -57 20 -19 51 -38 70 -43 l34 -10 0
-109 c0 -63 -4 -111 -10 -115 -6 -4 -7 -11 -4 -17 4 -6 1 -14 -6 -18 -8 -5
-15 -19 -17 -32 -2 -13 -15 -47 -29 -75 -14 -29 -27 -67 -29 -84 -3 -17 -12
-43 -22 -58 -9 -14 -17 -28 -17 -31 0 -3 -11 -16 -24 -30 -24 -25 -44 -63 -48
-90 -4 -33 -10 -46 -28 -63 -10 -9 -15 -17 -11 -17 5 0 -6 -13 -24 -29 -18
-16 -32 -33 -32 -38 0 -4 -9 -18 -19 -31 -11 -12 -20 -29 -20 -36 0 -8 -5 -18
-10 -21 -6 -4 -8 -11 -5 -16 4 -5 2 -9 -2 -9 -10 0 -44 -70 -34 -71 3 0 14 -2
24 -4 9 -2 17 0 17 5 0 4 10 11 23 15 12 4 24 8 27 9 28 10 136 71 138 77 2 5
8 9 13 9 16 0 109 64 151 103 10 9 23 17 28 17 6 0 64 54 130 120 67 66 118
120 114 120 -3 0 8 16 26 36 17 20 36 47 42 60 6 13 14 24 18 24 4 0 13 14 20
30 7 17 16 30 20 30 5 0 13 12 19 28 6 15 24 50 40 77 17 28 30 58 31 68 0 9
4 17 10 17 5 0 7 7 4 15 -4 8 -2 15 3 15 7 0 32 62 48 120 1 3 5 19 10 35 4
17 11 35 15 40 4 6 6 18 5 28 -2 9 1 17 5 17 5 0 9 8 8 18 0 9 3 33 7 52 4 19
7 45 8 58 0 12 4 22 7 22 3 0 6 21 7 48 1 26 3 93 5 150 3 56 1 102 -3 102 -4
0 -4 14 1 30 5 17 5 30 1 30 -4 0 -7 20 -6 45 0 25 -2 45 -5 45 -4 0 -7 15 -7
33 -1 17 -7 52 -13 77 -6 25 -12 55 -14 67 -2 12 -10 39 -17 60 -7 21 -12 44
-11 51 2 6 -1 12 -7 12 -5 0 -15 23 -22 50 -7 28 -17 50 -23 50 -5 0 -7 3 -3
6 3 4 -15 45 -40 93 -25 47 -52 98 -60 112 -7 15 -20 32 -28 39 -8 7 -15 18
-15 24 0 11 -31 52 -89 118 -18 21 -31 38 -28 38 6 0 -145 147 -200 196 -24
20 -43 33 -43 30 0 -4 -11 5 -24 19 -14 15 -28 27 -33 27 -4 0 -28 14 -52 32
-24 17 -46 30 -50 29 -3 -1 -15 7 -27 18 -11 10 -24 16 -27 12 -4 -3 -7 -1 -7
6 0 7 -4 9 -10 6 -5 -3 -10 -2 -10 4 0 5 -13 12 -30 16 -16 4 -30 11 -30 16 0
5 -4 9 -9 9 -5 0 -22 5 -38 12 -15 6 -35 12 -43 14 -8 2 -23 7 -35 13 -32 16
-112 40 -155 47 -22 4 -40 10 -40 15 0 4 -13 6 -30 4 -16 -2 -30 1 -30 6 0 6
-12 9 -27 8 -16 -1 -46 1 -67 6 -21 4 -72 8 -112 8 -41 1 -74 4 -74 7 0 10
-39 9 -46 -2 -4 -6 -10 -5 -15 3 -6 9 -9 10 -9 2z m363 -1698 c8 -8 17 -11 21
-8 3 4 6 1 6 -4 0 -7 44 -13 123 -17 67 -2 133 -6 147 -7 14 -1 43 0 65 2 l40
4 -1 -46 c0 -57 -23 -84 -73 -85 -26 -1 -42 6 -58 23 -11 13 -24 20 -27 15 -3
-5 -44 -9 -90 -8 -73 1 -89 4 -118 26 -18 14 -36 25 -40 26 -5 1 -12 2 -16 3
-14 2 -44 62 -38 77 7 18 40 18 59 -1z"/>
<path d="M1050 2952 c-14 -9 -27 -19 -30 -22 -3 -3 -23 -14 -45 -25 -35 -18
-59 -39 -59 -55 0 -12 -60 -70 -73 -70 -7 0 -13 -5 -13 -12 0 -6 -3 -9 -6 -5
-10 10 -39 -25 -39 -47 0 -12 -6 -21 -12 -22 -7 -1 -15 -3 -18 -4 -3 -1 -8 -3
-12 -5 -5 -1 -15 -5 -25 -9 -9 -4 -29 -6 -44 -4 -24 3 -28 8 -30 38 -3 35 18
80 37 80 13 0 27 15 59 60 28 40 33 57 17 63 -7 3 -28 12 -48 21 -36 15 -36
15 -70 -18 -38 -36 -99 -119 -99 -134 0 -6 -3 -12 -7 -14 -12 -5 -53 -66 -53
-78 0 -5 -5 -10 -11 -10 -5 0 -8 -4 -4 -9 3 -5 1 -12 -5 -16 -6 -4 -8 -11 -5
-16 4 -5 2 -9 -3 -9 -8 0 -30 -47 -33 -70 -1 -3 -9 -21 -20 -41 -10 -20 -15
-39 -12 -43 4 -3 1 -6 -5 -6 -6 0 -16 -25 -23 -55 -7 -31 -16 -58 -21 -61 -4
-3 -8 -18 -8 -35 0 -16 -3 -29 -8 -29 -4 0 -8 -12 -9 -27 -1 -16 -4 -41 -7
-58 -4 -16 -9 -55 -12 -85 -4 -30 -9 -57 -13 -60 -9 -7 -7 -290 2 -290 5 0 7
-8 6 -17 -3 -39 1 -94 9 -90 4 3 7 -14 6 -36 0 -23 2 -46 5 -52 6 -11 10 -27
16 -60 2 -11 4 -21 5 -22 3 -3 3 -3 14 -53 5 -19 12 -39 16 -45 9 -12 24 -67
22 -77 -1 -5 2 -8 7 -8 5 0 12 -16 15 -35 4 -20 11 -33 17 -30 5 4 9 -1 9 -11
0 -18 60 -137 72 -142 5 -2 8 -10 8 -17 0 -8 8 -19 18 -24 9 -6 13 -11 8 -11
-5 0 -3 -7 4 -15 7 -8 10 -15 7 -15 -4 0 6 -13 21 -29 15 -15 34 -39 42 -51 8
-13 29 -39 47 -57 18 -18 30 -33 28 -33 -5 0 80 -86 147 -147 25 -24 49 -43
53 -43 4 0 19 -12 32 -26 13 -14 27 -24 30 -20 3 3 14 -6 25 -19 11 -14 24
-23 29 -20 5 4 9 1 9 -4 0 -6 7 -11 15 -11 9 0 18 -7 21 -15 4 -8 11 -15 16
-15 5 0 37 -16 71 -36 34 -20 63 -35 65 -34 1 1 23 -8 47 -20 25 -12 51 -23
57 -24 12 -3 23 -6 66 -23 9 -3 19 -7 22 -8 3 -1 12 -4 20 -8 29 -11 102 -27
138 -30 12 -1 22 -5 22 -8 0 -7 95 -20 170 -24 25 -1 45 -3 45 -5 0 -1 51 -3
113 -4 61 -1 112 1 112 4 0 4 21 7 48 8 26 0 72 5 102 11 30 6 63 12 73 14 21
2 37 24 37 53 0 11 6 26 13 32 6 7 13 38 13 68 1 35 7 61 18 72 9 10 13 22 9
25 -3 4 -1 7 5 7 7 0 12 7 12 15 0 9 6 18 14 21 28 11 52 157 29 176 -7 6 -13
17 -13 25 0 18 -48 63 -69 63 -9 0 -27 9 -41 20 -14 11 -33 20 -42 20 -11 0
-15 5 -12 14 3 8 1 17 -5 21 -6 3 -11 15 -11 25 0 10 -6 25 -12 32 -8 7 -13
39 -13 73 0 33 -3 63 -7 66 -5 3 5 25 20 50 18 27 28 57 27 75 -2 42 -62 113
-91 108 -23 -4 -44 14 -48 41 -2 15 -15 25 -73 56 -13 7 -23 16 -23 21 0 5 -4
6 -10 3 -5 -3 -10 -1 -10 4 0 7 -24 11 -59 11 -36 0 -65 5 -73 13 -8 8 -35 13
-70 12 -32 -1 -58 2 -58 7 0 4 -9 8 -19 8 -11 0 -23 5 -26 10 -4 6 -11 8 -16
5 -5 -4 -9 -2 -9 4 0 6 -16 17 -35 27 -58 27 -139 124 -104 124 5 0 4 9 -3 20
-8 13 -16 16 -22 10 -18 -18 -74 -11 -96 12 -11 12 -20 28 -20 35 0 7 -5 13
-10 13 -12 0 -34 49 -31 68 1 6 -2 12 -7 12 -5 0 -12 8 -16 18 -3 9 -17 35
-30 57 -16 26 -23 51 -21 73 1 17 -1 32 -6 32 -5 0 -9 6 -9 14 0 8 -4 16 -8
18 -4 2 -17 23 -29 46 -18 37 -21 58 -18 130 2 48 8 88 13 90 5 1 8 12 5 23
-3 10 -1 25 5 32 6 7 17 32 25 56 16 46 11 79 -19 113 -12 13 -15 39 -12 122
2 58 0 106 -4 106 -3 0 -4 9 -1 20 3 12 -1 22 -10 26 -9 3 -14 14 -12 24 4 22
-30 60 -53 59 -9 0 -28 -8 -42 -17z"/>
</g>
</svg>
